<svg width="15" height="12" viewBox="0 0 15 12" fill="none" xmlns="http://www.w3.org/2000/svg">
<path d="M0 2.68182C0 2.40568 0.223858 2.18182 0.5 2.18182H2.43786L2.63244 2.45136C2.75264 2.61785 2.75882 2.8409 2.64803 3.01379L2.4821 3.27273H0.5C0.223857 3.27273 0 3.04887 0 2.77273V2.68182Z" fill="#DCDCDC"/>
<path d="M7.3623 2.12282H14.5C14.7761 2.12282 15 2.34668 15 2.62282V2.86115C15 3.1373 14.7761 3.36115 14.5 3.36115H7.53054L7.72361 3.05371C7.84442 2.86134 7.82037 2.6117 7.66505 2.44593L7.3623 2.12282Z" fill="#DCDCDC"/>
<path d="M7.67858 2.72727C7.67858 4.08667 6.53168 5.20455 5.09695 5.20455C3.66222 5.20455 2.51532 4.08667 2.51532 2.72727C2.51532 1.36788 3.66222 0.25 5.09695 0.25C6.53168 0.25 7.67858 1.36788 7.67858 2.72727Z" stroke="#DCDCDC" stroke-width="0.5"/>
<path d="M0 9.22727C0 8.95113 0.223858 8.72727 0.5 8.72727H6.94222L7.14625 8.99224C7.27567 9.1603 7.28495 9.39173 7.16942 9.56962L7.008 9.81818H0.5C0.223857 9.81818 0 9.59433 0 9.31818V9.22727Z" fill="#DCDCDC"/>
<path d="M12.1535 8.72727H14.2245C14.5006 8.72727 14.7245 8.95113 14.7245 9.22727V9.31818C14.7245 9.59433 14.5006 9.81818 14.2245 9.81818H12.0401L12.2583 9.53416C12.3802 9.37556 12.3958 9.1596 12.298 8.98512L12.1535 8.72727Z" fill="#DCDCDC"/>
<path d="M12.2092 9.27273C12.2092 10.6321 11.0623 11.75 9.62753 11.75C8.1928 11.75 7.0459 10.6321 7.0459 9.27273C7.0459 7.91333 8.1928 6.79545 9.62753 6.79545C11.0623 6.79545 12.2092 7.91333 12.2092 9.27273Z" stroke="#DCDCDC" stroke-width="0.5"/>
</svg>
