<svg width="17" height="17" viewBox="0 0 17 17" fill="none" xmlns="http://www.w3.org/2000/svg">
<path d="M1.88384 15.792C1.60148 15.3239 1.88384 5.64524 1.88384 5.64524C1.88384 5.64524 1.5712 5.58364 1.02853 5.58364C0.485862 5.58364 7.85448 1 8.6223 1C9.39013 1 16.1967 5.58364 15.9254 5.58364C15.654 5.58364 14.9369 5.64524 14.9369 5.64524C14.9369 5.64524 15.3524 15.3239 14.9369 15.792C14.5213 16.26 10.3299 15.792 10.3299 15.792H6.74673C6.74673 15.792 2.1662 16.26 1.88384 15.792Z" stroke="white"/>
<path d="M6.72967 10.1673C6.15661 10.7402 6.72967 15.5588 6.72967 15.5588H10.1674C10.1674 15.5588 10.7404 10.7402 10.1674 10.1673C9.59445 9.59431 7.30274 9.59431 6.72967 10.1673Z" stroke="white"/>
</svg>
