<svg width="12" height="16" viewBox="0 0 12 16" fill="none" xmlns="http://www.w3.org/2000/svg">
<path d="M6.5306 2.49957C6.83241 2.03705 7.45203 1.90677 7.91455 2.20859L9.23591 3.07083C9.69843 3.37264 9.82871 3.99226 9.5269 4.45478L3.55598 13.605C3.41622 13.8192 3.12931 13.8795 2.91513 13.7398L1.1441 12.5841C0.681577 12.2823 0.551299 11.6627 0.853114 11.2001L6.5306 2.49957Z" fill="#D2D2D2"/>
<path d="M8.00954 0.418696C8.16045 0.187435 8.47026 0.122296 8.70152 0.273203L10.8603 1.68193C11.0916 1.83284 11.1567 2.14265 11.0058 2.37391L10.4938 3.15865C10.354 3.37283 10.0671 3.43315 9.85291 3.2934L7.66314 1.86448C7.43188 1.71357 7.36674 1.40376 7.51765 1.1725L8.00954 0.418696Z" fill="#D2D2D2"/>
<path d="M3.34357 13.5233L0.835893 11.8516L0.260128 14.3465C0.16161 14.7735 0.620811 15.1116 0.999259 14.8909L3.34357 13.5233Z" fill="#D2D2D2"/>
</svg>
