<svg width="19" height="20" viewBox="0 0 19 20" fill="none" xmlns="http://www.w3.org/2000/svg">
<path d="M5.84394 10.3184C4.72261 8.66427 5.17984 6.45291 6.86521 5.37916L11.1854 2.62674C12.8708 1.55298 15.1461 2.02343 16.2674 3.67753C17.3887 5.33162 16.9315 7.54298 15.2461 8.61674L13.086 9.99295L10.9259 11.3692C9.24057 12.4429 6.96528 11.9725 5.84394 10.3184Z" stroke="#DCDCDC"/>
<path d="M13.1569 11.5637C13.1569 11.5637 13.7519 12.1684 13.1569 13.7441C12.7994 14.6907 9.58147 16.6495 7.06861 18.0629C5.36771 19.0196 3.20601 18.4659 2.11591 16.8506V16.8506C0.957862 15.1347 1.42203 12.8425 3.15628 11.7131L3.88035 11.2415M11.586 9.17298L11.2119 8.66531V8.66531C10.679 7.87564 9.59576 7.65066 8.79245 8.1628L7.29169 9.1196" stroke="#DCDCDC"/>
</svg>
