<svg width="15" height="17" viewBox="0 0 15 17" fill="none" xmlns="http://www.w3.org/2000/svg">
<path d="M2.79802 6.30726C2.79802 4.92344 2.70138 3.144 4.86848 1.92519C5.39408 1.62959 6.79633 1.23328 7.39898 1.23328C8.77926 1.23327 9.13744 1.33921 10.1595 1.69455C12.2679 2.42754 12.69 4.07 12.69 6.30726C12.69 7.9217 11.8453 9.70208 12.69 11.6119C13.3343 13.0686 14.5304 13.457 14.9905 14.3795C15.4505 15.302 -0.882702 15.5327 0.0374798 14.3795C0.957662 13.2263 1.78106 13.0348 2.33798 11.6119C3.1104 9.63841 2.79802 8.42722 2.79802 6.30726Z" fill="#7A7A7A"/>
<path d="M9.78261 15.3654C9.78261 16.4487 8.90665 17 7.82609 17C6.74553 17 5.86957 16.4487 5.86957 15.3654C5.86957 15.3654 6.74553 15.3654 7.82609 15.3654C8.90665 15.3654 9.78261 15.3654 9.78261 15.3654Z" fill="#7A7A7A"/>
<path d="M8.80942 1.08008C8.80942 1.08008 8.32105 1.07577 7.71862 1.07045C7.11619 1.06513 6.62782 1.06081 6.62782 1.06081C6.63297 0.474942 7.12551 0.00431338 7.72794 0.00963421C8.33037 0.014955 8.81457 0.49421 8.80942 1.08008Z" fill="#7A7A7A"/>
</svg>
