<svg width="9" height="14" viewBox="0 0 9 14" fill="none" xmlns="http://www.w3.org/2000/svg">
<path d="M5.8877 9.01855H3.50586C3.50586 8.49707 3.54395 8.04297 3.62012 7.65625C3.70215 7.26367 3.83691 6.91211 4.02441 6.60156C4.21191 6.28516 4.46387 5.9834 4.78027 5.69629C5.05566 5.45605 5.2959 5.23047 5.50098 5.01953C5.70605 4.80273 5.86426 4.58008 5.97559 4.35156C6.08691 4.12305 6.14258 3.87402 6.14258 3.60449C6.14258 3.28223 6.09277 3.01855 5.99316 2.81348C5.89941 2.60254 5.75879 2.44434 5.57129 2.33887C5.38965 2.22754 5.16113 2.17188 4.88574 2.17188C4.65723 2.17188 4.44336 2.22461 4.24414 2.33008C4.04492 2.42969 3.88379 2.58789 3.76074 2.80469C3.6377 3.02148 3.57031 3.30566 3.55859 3.65723H0.798828C0.816406 2.81934 1.00684 2.13379 1.37012 1.60059C1.7334 1.06152 2.21973 0.666016 2.8291 0.414062C3.44434 0.15625 4.12988 0.0273438 4.88574 0.0273438C5.72363 0.0273438 6.44141 0.15918 7.03906 0.422852C7.64258 0.686523 8.10254 1.07617 8.41895 1.5918C8.74121 2.10742 8.90234 2.7373 8.90234 3.48145C8.90234 3.99121 8.80566 4.43945 8.6123 4.82617C8.41895 5.20703 8.16113 5.56445 7.83887 5.89844C7.5166 6.22656 7.15918 6.56934 6.7666 6.92676C6.43262 7.22559 6.2041 7.53613 6.08105 7.8584C5.95801 8.1748 5.89355 8.56152 5.8877 9.01855ZM3.18945 11.708C3.18945 11.3154 3.33008 10.9844 3.61133 10.7148C3.89844 10.4453 4.27051 10.3105 4.72754 10.3105C5.18457 10.3105 5.55371 10.4453 5.83496 10.7148C6.11621 10.9844 6.25684 11.3154 6.25684 11.708C6.25684 12.1064 6.11621 12.4404 5.83496 12.71C5.55371 12.9736 5.18457 13.1055 4.72754 13.1055C4.27051 13.1055 3.89844 12.9736 3.61133 12.71C3.33008 12.4404 3.18945 12.1064 3.18945 11.708Z" fill="#7A7A7A"/>
</svg>
