<svg width="17" height="17" viewBox="0 0 17 17" fill="none" xmlns="http://www.w3.org/2000/svg">
<path d="M13.0285 8.49574C13.0285 11.0125 10.9856 13.0563 8.46112 13.0563C5.93663 13.0563 3.89371 11.0125 3.89371 8.49574C3.89371 5.97901 5.93663 3.93521 8.46112 3.93521C10.9856 3.93521 13.0285 5.97901 13.0285 8.49574Z" stroke="#7A7A7A" stroke-width="4"/>
<rect width="3.96695" height="2.64498" rx="1" transform="matrix(0.749668 -0.661814 0.662593 0.74898 1.43909 3.45728)" fill="#7A7A7A"/>
<rect width="3.96463" height="2.70875" rx="1" transform="matrix(-0.0551587 -0.998478 0.998484 -0.0550436 0.218689 10.6739)" fill="#7A7A7A"/>
<rect width="3.96695" height="2.98544" rx="1" transform="matrix(-0.749769 -0.6617 0.662479 -0.749081 4.66504 16.3545)" fill="#7A7A7A"/>
<rect width="3.9686" height="2.61209" rx="1" transform="matrix(0.978966 0.204023 -0.204432 0.978881 8.60883 0)" fill="#7A7A7A"/>
<rect width="3.96505" height="3.18177" rx="1" transform="matrix(0.321917 0.946768 -0.946973 0.321312 15.7236 3.53967)" fill="#7A7A7A"/>
<rect width="3.96539" height="3.50858" rx="1" transform="matrix(-0.430989 0.902357 -0.902707 -0.430255 16.8142 10.3913)" fill="#7A7A7A"/>
<rect width="3.96864" height="2.83587" rx="1" transform="matrix(-0.984521 0.175267 -0.175623 -0.984458 12.48 16.3044)" fill="#7A7A7A"/>
</svg>
