<svg width="14" height="20" viewBox="0 0 14 20" fill="none" xmlns="http://www.w3.org/2000/svg">
<path d="M10.64 4.152L9.936 6.664C9.93067 6.68 9.93333 6.696 9.944 6.712C9.95467 6.728 9.968 6.736 9.984 6.736H11.312C11.328 6.736 11.3413 6.728 11.352 6.712C11.3627 6.696 11.3653 6.68 11.36 6.664L10.656 4.152C10.656 4.14667 10.6533 4.144 10.648 4.144C10.6427 4.144 10.64 4.14667 10.64 4.152ZM8.568 9C8.456 9 8.368 8.95467 8.304 8.864C8.24 8.77333 8.22667 8.67467 8.264 8.568L9.92 3.592C9.968 3.464 10.0453 3.36 10.152 3.28C10.264 3.2 10.3867 3.16 10.52 3.16H10.808C10.9467 3.16 11.0693 3.2 11.176 3.28C11.288 3.36 11.3653 3.464 11.408 3.592L13.064 8.568C13.1013 8.67467 13.088 8.77333 13.024 8.864C12.96 8.95467 12.872 9 12.76 9H12.472C12.344 9 12.224 8.96 12.112 8.88C12.0053 8.79467 11.9333 8.688 11.896 8.56L11.64 7.656C11.6347 7.61333 11.6053 7.592 11.552 7.592H9.744C9.696 7.592 9.66667 7.61333 9.656 7.656L9.4 8.56C9.368 8.688 9.296 8.79467 9.184 8.88C9.07733 8.96 8.95733 9 8.824 9H8.568Z" fill="#5F5F5F"/>
<path d="M8.8 15.712L11.184 12.088V12.08L11.192 12.072C11.192 12.0667 11.1893 12.064 11.184 12.064H9.008C8.88533 12.064 8.77867 12.0213 8.688 11.936C8.59733 11.8453 8.552 11.7387 8.552 11.616C8.552 11.4933 8.59733 11.3867 8.688 11.296C8.77867 11.2053 8.88533 11.16 9.008 11.16H12.048C12.1707 11.16 12.2773 11.2053 12.368 11.296C12.4587 11.3867 12.504 11.4933 12.504 11.616C12.504 11.9147 12.4213 12.192 12.256 12.448L9.872 16.072V16.08L9.864 16.088C9.864 16.0933 9.86667 16.096 9.872 16.096H12.048C12.1707 16.096 12.2773 16.1413 12.368 16.232C12.4587 16.3173 12.504 16.4213 12.504 16.544C12.504 16.6667 12.4587 16.7733 12.368 16.864C12.2773 16.9547 12.1707 17 12.048 17H9.008C8.88533 17 8.77867 16.9547 8.688 16.864C8.59733 16.7733 8.552 16.6667 8.552 16.544C8.552 16.2453 8.63467 15.968 8.8 15.712Z" fill="#5F5F5F"/>
<rect x="3" y="4" width="2" height="12" rx="1" fill="#5F5F5F"/>
<path d="M4.36728 16.6024C4.16932 16.8167 3.83068 16.8167 3.63272 16.6024L1.31119 14.0893C1.01536 13.769 1.2425 13.25 1.67846 13.25L6.32154 13.25C6.7575 13.25 6.98464 13.769 6.68881 14.0893L4.36728 16.6024Z" fill="#5F5F5F"/>
</svg>
