<svg width="14" height="20" viewBox="0 0 14 20" fill="none" xmlns="http://www.w3.org/2000/svg">
<path d="M8.8 7.712L11.184 4.088V4.08L11.192 4.072C11.192 4.06667 11.1893 4.064 11.184 4.064H9.008C8.88533 4.064 8.77867 4.02133 8.688 3.936C8.59733 3.84533 8.552 3.73867 8.552 3.616C8.552 3.49333 8.59733 3.38667 8.688 3.296C8.77867 3.20533 8.88533 3.16 9.008 3.16H12.048C12.1707 3.16 12.2773 3.20533 12.368 3.296C12.4587 3.38667 12.504 3.49333 12.504 3.616C12.504 3.91467 12.4213 4.192 12.256 4.448L9.872 8.072V8.08L9.864 8.088C9.864 8.09333 9.86667 8.096 9.872 8.096H12.048C12.1707 8.096 12.2773 8.14133 12.368 8.232C12.4587 8.31733 12.504 8.42133 12.504 8.544C12.504 8.66667 12.4587 8.77333 12.368 8.864C12.2773 8.95467 12.1707 9 12.048 9H9.008C8.88533 9 8.77867 8.95467 8.688 8.864C8.59733 8.77333 8.552 8.66667 8.552 8.544C8.552 8.24533 8.63467 7.968 8.8 7.712Z" fill="#5F5F5F"/>
<path d="M10.64 12.152L9.936 14.664C9.93067 14.68 9.93333 14.696 9.944 14.712C9.95467 14.728 9.968 14.736 9.984 14.736H11.312C11.328 14.736 11.3413 14.728 11.352 14.712C11.3627 14.696 11.3653 14.68 11.36 14.664L10.656 12.152C10.656 12.1467 10.6533 12.144 10.648 12.144C10.6427 12.144 10.64 12.1467 10.64 12.152ZM8.568 17C8.456 17 8.368 16.9547 8.304 16.864C8.24 16.7733 8.22667 16.6747 8.264 16.568L9.92 11.592C9.968 11.464 10.0453 11.36 10.152 11.28C10.264 11.2 10.3867 11.16 10.52 11.16H10.808C10.9467 11.16 11.0693 11.2 11.176 11.28C11.288 11.36 11.3653 11.464 11.408 11.592L13.064 16.568C13.1013 16.6747 13.088 16.7733 13.024 16.864C12.96 16.9547 12.872 17 12.76 17H12.472C12.344 17 12.224 16.96 12.112 16.88C12.0053 16.7947 11.9333 16.688 11.896 16.56L11.64 15.656C11.6347 15.6133 11.6053 15.592 11.552 15.592H9.744C9.696 15.592 9.66667 15.6133 9.656 15.656L9.4 16.56C9.368 16.688 9.296 16.7947 9.184 16.88C9.07733 16.96 8.95733 17 8.824 17H8.568Z" fill="#5F5F5F"/>
<rect x="3" y="4" width="2" height="12" rx="1" fill="#5F5F5F"/>
<path d="M4.36728 16.6024C4.16932 16.8167 3.83068 16.8167 3.63272 16.6024L1.31119 14.0893C1.01536 13.769 1.2425 13.25 1.67846 13.25L6.32154 13.25C6.7575 13.25 6.98464 13.769 6.68881 14.0893L4.36728 16.6024Z" fill="#5F5F5F"/>
</svg>
