<svg width="20" height="18" viewBox="0 0 20 18" fill="none" xmlns="http://www.w3.org/2000/svg">
<path d="M8.84421 4.62032C8.38334 4.58651 5.52057 2.60598 4.52005 3.28997C4.52005 3.28997 0.759855 12.3816 1.39512 12.9355C2.03039 13.4894 5.20688 14.2615 5.84217 14.2615C6.47746 14.2615 5.6142 12.3816 5.84217 11.6815C6.07014 10.9814 6.85975 10.2845 7.74803 10.3915C8.71584 10.5081 9.2105 11.56 9.29274 12.3816C9.3973 13.4261 7.74807 14.9065 8.38334 14.9065C9.01861 14.9065 12.8895 16.2999 12.8895 16.2999C13.7516 15.7282 14.1009 13.6165 14.1934 12.9355C14.2859 12.2545 15.4349 13.8858 16.2469 13.642C16.9198 13.4401 17.4636 13.0624 17.5174 12.352C17.56 11.7905 17.2812 11.4533 16.8822 11.062C16.349 10.5393 14.7745 10.5669 15.073 10.4792C15.3715 10.3915 16.1022 7.29939 15.8206 6.86178C15.539 6.42418 12.6794 5.26387 11.7999 5.23923C10.9203 5.21458 12.3068 4.06412 12.143 3.05709C12.0213 2.30836 11.1646 2.01423 11.1646 2.01423C11.1646 2.01423 9.81102 1.46469 9.25868 2.03001C8.5478 2.7576 9.30507 4.65413 8.84421 4.62032Z" stroke="#DCDCDC" stroke-width="0.75"/>
</svg>
